<svg width="578" height="578" viewBox="0 0 578 578" fill="none" xmlns="http://www.w3.org/2000/svg">
<path d="M505.75 90.3125C515.684 90.3125 523.812 98.4406 523.812 108.375V469.399L518.168 462.061L364.637 263.374C359.557 256.713 351.541 252.875 343.188 252.875C334.834 252.875 326.931 256.713 321.738 263.374L228.039 384.618L193.607 336.414C188.527 329.302 180.399 325.125 171.594 325.125C162.788 325.125 154.66 329.302 149.58 336.527L59.2676 462.964L54.1875 469.964V469.625V108.375C54.1875 98.4406 62.3156 90.3125 72.25 90.3125H505.75ZM72.25 36.125C32.3996 36.125 0 68.5246 0 108.375V469.625C0 509.475 32.3996 541.875 72.25 541.875H505.75C545.6 541.875 578 509.475 578 469.625V108.375C578 68.5246 545.6 36.125 505.75 36.125H72.25ZM162.562 252.875C169.678 252.875 176.725 251.473 183.299 248.75C189.873 246.027 195.847 242.036 200.879 237.004C205.911 231.972 209.902 225.998 212.625 219.424C215.348 212.85 216.75 205.803 216.75 198.688C216.75 191.572 215.348 184.525 212.625 177.951C209.902 171.377 205.911 165.403 200.879 160.371C195.847 155.339 189.873 151.348 183.299 148.625C176.725 145.902 169.678 144.5 162.562 144.5C155.447 144.5 148.4 145.902 141.826 148.625C135.252 151.348 129.278 155.339 124.246 160.371C119.214 165.403 115.223 171.377 112.5 177.951C109.777 184.525 108.375 191.572 108.375 198.688C108.375 205.803 109.777 212.85 112.5 219.424C115.223 225.998 119.214 231.972 124.246 237.004C129.278 242.036 135.252 246.027 141.826 248.75C148.4 251.473 155.447 252.875 162.562 252.875Z" fill="black"/>
</svg>
